:SAMPLES-PER-SECOND 30
:FULLY-SPECIFIED
:DEGREES
530
root  85.4647 38.8995 6.79786 -167.062 81.6526 -170.809
RightUpLeg  -10.6582 -6.77148 -0.128359
RightLeg  11.2321 -2.98891 1.11529
RightFoot  -2.32074 0.0738965 -1.139
RightToes  -1.16417e-010 0 -3.6325e-017
Spine  -1.64843 1.85487 12.4918
Spine1  7.27881 2.40194 -3.69151
HEad  -18.5044 -8.63426 0.309147
LeftShoulder1  -0.705894 5.2523 -34.1988
LeftArm  2.02677 17.2859 -35.2592
LeftForeArm  29.9552 -12.5155 -8.09005
LeftHand  -0.121498 9.92276 -1.76615
RightShoulder  -1.01043 -6.40447 28.2892
RightArm  22.4662 14.7576 48.0617
RightForeArm  15.2466 10.0987 8.9895
RightHand  0.0269943 3.30909 0.124327
LeftUpLeg  -17.0795 20.8131 5.37437
LeftLeg  21.9556 3.65052 2.05082
LeftFoot  -5.23044 0.464864 -8.09217
LeftToes  3.13772e-010 -3.14513e-011 3.96022e-013
531
root  85.8524 39.0157 6.8375 -168.639 78.8894 -173.122
RightUpLeg  -9.50868 -6.61503 -0.115572
RightLeg  9.28037 -5.78604 0.866975
RightFoot  -2.35497 0.0352248 -0.651652
RightToes  -1.16417e-010 0 -3.6325e-017
Spine  -3.78853 1.54504 12.6229
Spine1  8.2952 1.99775 -4.36
HEad  -17.62 -9.7093 0.665791
LeftShoulder1  -0.708458 5.26418 -34.0748
LeftArm  3.85526 17.7236 -35.874
LeftForeArm  27.7429 -14.745 -7.20519
LeftHand  -0.133293 10.0889 -1.77339
RightShoulder  -1.0279 -6.4318 28.5655
RightArm  20.6321 13.2967 46.7656
RightForeArm  16.6581 9.54484 8.76093
RightHand  0.0800299 2.93759 0.892262
LeftUpLeg  -16.9539 24.8876 3.91704
LeftLeg  14.9584 6.17883 1.57047
LeftFoot  -3.48419 0.547721 -7.70105
LeftToes  3.13772e-010 -3.14513e-011 3.96022e-013
532
root  86.2384 39.0978 6.95174 -169.994 74.9056 -175.21
RightUpLeg  -8.40198 -6.33858 0.0862315
RightLeg  7.56315 -10.0151 0.443083
RightFoot  -2.44283 0.00641541 -0.29526
RightToes  -1.16417e-010 0 -3.6325e-017
Spine  -6.14648 0.821048 9.27753
Spine1  9.46008 0.359374 -0.960248
HEad  -16.5306 -10.8382 0.788666
LeftShoulder1  -0.718311 5.27838 -34.2882
LeftArm  5.17103 17.1418 -36.8493
LeftForeArm  25.7652 -15.485 -7.01892
LeftHand  -0.0682638 8.9962 -0.625306
RightShoulder  -1.02839 -6.43805 28.5014
RightArm  20.1404 12.2753 45.2817
RightForeArm  17.5743 8.73118 8.89843
RightHand  0.0946311 2.60616 1.16529
LeftUpLeg  -16.6717 21.939 4.5504
LeftLeg  10.3201 17.2399 -0.1357
LeftFoot  -1.65703 0.423999 -4.93015
LeftToes  3.13772e-010 -3.14513e-011 3.96022e-013
533
root  86.4929 39.178 6.89833 -171.174 71.7472 -176.958
RightUpLeg  -7.51426 -6.49799 -0.283604
RightLeg  6.22776 -12.884 0.568064
RightFoot  -2.5169 -0.030914 0.177528
RightToes  -1.16417e-010 0 -3.6325e-017
Spine  -7.16882 0.330272 7.82448
Spine1  9.79178 -0.3894 0.106541
HEad  -15.9579 -12.0355 0.996378
LeftShoulder1  -0.786057 5.42289 -34.7708
LeftArm  5.7677 15.6529 -37.9436
LeftForeArm  25.0465 -16.0501 -6.76014
LeftHand  -0.0835725 8.84238 -1.13273
RightShoulder  -0.968294 -6.29687 28.1117
RightArm  19.5986 10.5934 44.0071
RightForeArm  17.4372 8.00707 8.96903
RightHand  0.0745817 2.57219 0.892911
LeftUpLeg  -15.6845 16.0981 5.59393
LeftLeg  6.61283 32.4064 -2.39283
LeftFoot  0.198829 0.154628 -1.5305
LeftToes  3.13772e-010 -3.14513e-011 3.96022e-013
534
root  86.7503 39.1955 6.9163 -170.396 68.3339 -176.637
RightUpLeg  -6.8683 -6.17689 0.208925
RightLeg  5.33564 -16.5425 0.559818
RightFoot  -2.63484 -0.0368152 0.25306
RightToes  -1.16417e-010 0 -3.6325e-017
Spine  -8.03191 -0.090024 5.49113
Spine1  9.93451 -1.27005 2.36512
HEad  -15.7688 -13.1722 1.71113
LeftShoulder1  -0.744319 5.33802 -34.3994
LeftArm  8.67127 14.7189 -39.6827
LeftForeArm  23.5982 -18.3056 -5.71898
LeftHand  -0.0500648 8.97882 -0.0327217
RightShoulder  -0.985538 -6.32186 28.4189
RightArm  20.4814 9.70683 42.4929
RightForeArm  14.9575 5.79857 9.82732
RightHand  0.0110796 3.28923 -0.101004
LeftUpLeg  -16.0503 15.775 5.49786
LeftLeg  5.85001 40.4597 -3.1974
LeftFoot  0.608873 -0.166377 1.5971
LeftToes  3.13772e-010 -3.14513e-011 3.96022e-013
535
root  87.2144 39.167 7.04867 -169.568 63.9221 -175.984
RightUpLeg  -5.53481 -5.0673 1.57616
RightLeg  4.02569 -21.9981 0.109226
RightFoot  -2.99294 -0.073917 0.74015
RightToes  -1.16417e-010 0 -3.6325e-017
Spine  -10.0714 -1.07686 -0.175787
Spine1  11.2173 -3.42175 8.21941
HEad  -14.9432 -14.6035 2.52392
LeftShoulder1  -0.779776 5.41209 -34.6771
LeftArm  11.5311 14.4059 -40.4104
LeftForeArm  22.2704 -21.9347 -4.27809
LeftHand  -0.0583015 8.27248 -0.44661
RightShoulder  -0.948931 -6.23235 28.2156
RightArm  19.6439 7.69303 41.8129
RightForeArm  16.0651 4.85663 9.61722
RightHand  -0.0300966 2.8889 -0.575645
LeftUpLeg  -16.8625 20.0516 4.78942
LeftLeg  7.91897 40.4474 -2.37864
LeftFoot  -0.524515 -0.365179 3.87778
LeftToes  3.13772e-010 -3.14513e-011 3.96022e-013
536
root  87.5312 39.1204 6.93443 -168.501 61.27 -174.707
RightUpLeg  -4.17816 -4.25044 2.613
RightLeg  2.71138 -25.4349 0.285838
RightFoot  -3.16751 -0.113564 1.28613
RightToes  -1.16417e-010 0 -3.6325e-017
Spine  -10.56 -1.15216 -0.416534
Spine1  10.9541 -3.38514 8.01398
HEad  -13.8516 -16.5454 3.78067
LeftShoulder1  -0.762196 5.37237 -34.6063
LeftArm  12.9187 14.0879 -39.8372
LeftForeArm  24.098 -25.8729 -4.18458
LeftHand  -0.0872864 8.33539 -1.49521
RightShoulder  -0.963687 -6.26411 28.3542
RightArm  16.4701 4.18357 41.7945
RightForeArm  21.1133 4.90357 8.20941
RightHand  0.123835 1.80489 1.80979
LeftUpLeg  -17.9082 24.4671 3.83663
LeftLeg  11.4267 39.1716 0.586188
LeftFoot  -1.89079 -0.318313 3.97474
LeftToes  3.13772e-010 -3.14513e-011 3.96022e-013
537
root  87.8432 39.0873 6.69501 -167.577 59.0273 -173.417
RightUpLeg  -2.80364 -3.70317 3.59225
RightLeg  1.97006 -27.902 0.520428
RightFoot  -3.48647 -0.141766 1.71978
RightToes  -1.16417e-010 0 -3.6325e-017
Spine  -11.4745 -1.13984 0.465466
Spine1  11.2512 -3.1158 6.69458
HEad  -13.5499 -19.3178 5.79881
LeftShoulder1  -0.753916 5.3537 -34.5736
LeftArm  13.8642 13.4191 -38.9442
LeftForeArm  23.9899 -28.6475 -4.88769
LeftHand  -0.0385879 7.50218 0.0957641
RightShoulder  -0.971875 -6.28631 28.3718
RightArm  15.7426 1.79022 42.3848
RightForeArm  22.6926 3.80399 7.89903
RightHand  0.129136 1.4706 2.03773
LeftUpLeg  -18.5623 28.4961 3.41893
LeftLeg  12.97 34.4906 1.44967
LeftFoot  -2.52478 -0.28887 3.92623
LeftToes  3.13772e-010 -3.14513e-011 3.96022e-013
538
root  88.2457 39.0318 6.46264 -167.833 55.813 -173.146
RightUpLeg  -0.974678 -3.62333 4.18366
RightLeg  0.985698 -31.0641 1.17473
RightFoot  -4.0027 -0.165462 2.14912
RightToes  -1.16417e-010 0 -3.6325e-017
Spine  -13.046 -1.72159 -1.0382
Spine1  12.6288 -3.8306 7.46566
HEad  -13.8089 -21.7444 7.67429
LeftShoulder1  -0.72466 5.2721 -34.794
LeftArm  12.0829 12.4414 -38.8498
LeftForeArm  25.4843 -29.8001 -5.07423
LeftHand  -0.0259038 6.92926 0.744797
RightShoulder  -1.00175 -6.37174 28.382
RightArm  15.1756 -0.320208 43.1701
RightForeArm  23.7406 3.44862 7.65136
RightHand  0.0719578 0.87663 1.25539
LeftUpLeg  -20.052 32.1752 1.91834
LeftLeg  14.731 27.3022 2.94134
LeftFoot  -2.08237 -0.418854 5.33313
LeftToes  3.13772e-010 -3.14513e-011 3.96022e-013
539
root  88.5131 38.9845 6.13266 -168.501 53.0172 -173.087
RightUpLeg  0.640529 -4.12723 4.13756
RightLeg  0.85014 -33.2421 1.899
RightFoot  -4.60789 -0.198342 2.86184
RightToes  -1.16417e-010 0 -3.6325e-017
Spine  -13.5087 -1.92058 -0.765058
Spine1  13.2961 -3.78662 6.312
HEad  -14.5151 -23.6227 9.41696
LeftShoulder1  -0.703211 5.22226 -34.7397
LeftArm  7.10679 10.8737 -40.5062
LeftForeArm  29.5834 -27.995 -4.42631
LeftHand  -0.0394224 6.17866 0.243118
RightShoulder  -1.01083 -6.40599 28.2848
RightArm  13.8782 -3.07837 44.1279
RightForeArm  23.3575 4.29967 7.05566
RightHand  0.101557 1.12782 1.70955
LeftUpLeg  -20.6187 33.1373 0.989944
LeftLeg  16.1067 22.7356 4.16552
LeftFoot  -2.68124 -0.408108 5.59836
LeftToes  3.13772e-010 -3.14513e-011 3.96022e-013
